<?xml version="1.0" standalone="no"?>
<!DOCTYPE svg PUBLIC "-//W3C//DTD SVG 20010904//EN"
 "http://www.w3.org/TR/2001/REC-SVG-20010904/DTD/svg10.dtd">
<svg version="1.0" xmlns="http://www.w3.org/2000/svg"
 width="260.000000pt" height="680.000000pt" viewBox="0 0 260.000000 680.000000"
 preserveAspectRatio="xMidYMid meet">

<g transform="translate(0.000000,680.000000) scale(0.100000,-0.100000)"
fill="#000000" stroke="none">
<path d="M2425 4643 c0 -35 -3 -39 -55 -64 -214 -107 -778 -179 -1227 -158
-367 17 -761 82 -886 145 -48 25 -67 45 -67 71 0 15 -5 23 -12 21 -20 -7 -21
-97 -3 -200 68 -396 385 -872 679 -1020 34 -17 67 -39 74 -49 6 -9 53 -47 103
-84 81 -59 94 -74 119 -128 59 -128 70 -318 77 -1357 3 -550 1 -890 -5 -973
-10 -117 -14 -135 -56 -233 -62 -144 -62 -185 2 -126 29 28 31 28 148 26 131
-1 149 -6 157 -36 4 -13 12 -18 24 -16 25 5 19 33 -29 142 -70 159 -71 183
-65 1221 6 1082 17 1258 82 1369 37 63 154 162 291 246 266 163 506 485 623
835 55 166 80 385 45 399 -9 3 -16 6 -17 6 -1 0 -2 -17 -2 -37z m-1274 -1339
c62 -23 247 -23 313 0 52 18 62 16 53 -8 -9 -24 -80 -37 -201 -37 -158 0 -226
14 -226 46 0 19 7 19 61 -1z m233 -144 c4 -4 0 -95 -10 -202 -17 -173 -19
-297 -19 -1208 0 -977 -1 -1017 -19 -1044 l-19 -29 -18 24 c-10 13 -20 37 -23
54 -3 16 -6 469 -6 1005 0 849 -2 1002 -18 1183 -10 114 -15 212 -12 217 12
19 123 20 144 0z"/>
<path d="M1098 663 c6 -2 18 -2 25 0 6 3 1 5 -13 5 -14 0 -19 -2 -12 -5z"/>
<path d="M290 431 c-10 -39 -8 -55 13 -99 31 -64 279 -147 517 -171 186 -20
205 -21 219 -12 14 9 6 12 -83 27 -25 4 -40 13 -43 25 -6 21 -17 25 -93 34
-149 19 -391 86 -458 127 -43 26 -65 61 -57 88 3 11 4 20 1 20 -3 0 -10 -18
-16 -39z"/>
<path d="M2300 389 c-75 -63 -323 -132 -549 -152 -93 -8 -128 -15 -140 -28 -9
-9 -31 -24 -49 -33 -53 -27 -30 -39 62 -31 400 33 661 112 702 212 23 55 14
66 -26 32z"/>
</g>
</svg>
