<?xml version="1.0" standalone="no"?>
<!DOCTYPE svg PUBLIC "-//W3C//DTD SVG 20010904//EN"
 "http://www.w3.org/TR/2001/REC-SVG-20010904/DTD/svg10.dtd">
<svg version="1.0" xmlns="http://www.w3.org/2000/svg"
 width="980.000000pt" height="960.000000pt" viewBox="0 0 980.000000 960.000000"
 preserveAspectRatio="xMidYMid meet">

<g transform="translate(0.000000,960.000000) scale(0.100000,-0.100000)"
fill="#000000" stroke="none">
<path d="M1128 9563 l-78 -24 0 -142 c0 -690 141 -1320 417 -1870 63 -127 74
-127 -109 1 -572 398 -972 877 -1178 1410 -24 62 -47 112 -50 112 -3 0 -33
-26 -68 -57 l-62 -58 48 -110 c420 -953 1057 -1621 2002 -2097 308 -155 942
-238 1820 -238 298 0 793 14 877 26 l43 5 -24 47 c-88 173 -213 531 -275 782
-85 348 -114 595 -114 972 l-1 267 -75 7 c-102 9 -398 -2 -549 -21 -723 -91
-1350 -353 -1683 -702 -109 -114 -167 -205 -226 -352 -9 -23 -15 -15 -85 100
-334 545 -502 1025 -537 1538 -10 137 -8 326 4 404 5 33 4 33 -97 0z m1908
-1661 c145 -73 218 -231 180 -383 -34 -132 -126 -223 -259 -255 -115 -29 -230
4 -316 88 -68 68 -94 127 -99 230 -4 80 -2 92 25 150 16 35 42 78 57 96 93
109 278 142 412 74z"/>
<path d="M5117 8903 c-8 -14 -66 -226 -97 -355 -72 -302 -109 -587 -117 -893
-9 -351 23 -640 106 -958 21 -81 40 -149 42 -151 10 -8 1011 -407 1014 -404 2
2 19 75 39 164 144 645 407 1274 823 1967 l101 168 -61 40 c-34 22 -137 77
-228 123 -275 138 -589 229 -929 271 -218 26 -683 45 -693 28z"/>
<path d="M7940 7949 c-326 -221 -541 -398 -785 -643 -198 -198 -312 -335 -440
-526 -149 -223 -253 -431 -339 -678 l-44 -128 375 -459 c206 -253 382 -468
391 -477 16 -16 23 -10 117 93 178 196 457 440 694 608 346 246 807 485 1264
656 26 10 49 21 51 24 6 9 -86 236 -149 369 -185 389 -472 781 -780 1065 -107
99 -209 187 -217 187 -2 0 -65 -41 -138 -91z"/>
<path d="M4422 6328 c-148 -247 -572 -990 -572 -1003 0 -18 176 -953 186 -986
4 -14 14 -14 107 4 56 11 103 21 105 22 1 1 -16 185 -38 408 -22 224 -40 421
-40 439 0 28 52 99 336 458 184 234 355 450 379 481 l44 56 -233 76 c-128 42
-237 77 -243 77 -6 0 -20 -15 -31 -32z"/>
<path d="M4920 5664 c-206 -217 -391 -413 -410 -436 l-34 -40 -23 -506 c-13
-278 -20 -508 -17 -511 3 -3 52 -8 108 -9 l102 -4 59 434 58 433 484 384 c266
212 481 386 479 388 -4 5 -427 263 -429 263 -1 0 -171 -178 -377 -396z"/>
<path d="M9730 5793 c-853 -151 -1371 -332 -1850 -647 -167 -110 -307 -224
-457 -369 -92 -90 -123 -126 -123 -145 0 -34 159 -1215 165 -1220 2 -3 44 11
92 30 202 80 394 114 608 105 244 -10 462 -79 706 -226 l37 -22 89 138 c512
785 759 1476 799 2231 l7 132 -24 -1 c-13 -1 -35 -4 -49 -6z"/>
<path d="M5445 5260 l-460 -448 -159 -426 c-88 -234 -157 -427 -155 -429 2 -1
71 0 153 3 l149 5 142 345 141 345 400 283 c219 156 461 326 537 379 75 53
137 99 137 102 0 8 -399 285 -414 288 -6 1 -218 -200 -471 -447z"/>
<path d="M7682 3215 c-77 -14 -217 -57 -265 -82 -16 -8 -79 -58 -140 -111
-659 -567 -1176 -1246 -1572 -2066 -134 -276 -272 -602 -260 -614 17 -18 958
443 1881 921 198 103 366 187 372 187 7 0 481 -324 1055 -721 l1042 -720 3 78
c4 102 -15 443 -33 592 -95 762 -366 1424 -839 2046 -151 198 -186 229 -371
322 -266 133 -455 184 -678 182 -67 0 -155 -7 -195 -14z"/>
</g>
</svg>
