<?xml version="1.0" standalone="no"?>
<!DOCTYPE svg PUBLIC "-//W3C//DTD SVG 20010904//EN"
 "http://www.w3.org/TR/2001/REC-SVG-20010904/DTD/svg10.dtd">
<svg version="1.0" xmlns="http://www.w3.org/2000/svg"
 width="260.000000pt" height="480.000000pt" viewBox="0 0 260.000000 480.000000"
 preserveAspectRatio="xMidYMid meet">

<g transform="translate(0.000000,480.000000) scale(0.100000,-0.100000)"
fill="#000000" stroke="none">
<path d="M490 3199 c0 -11 6 -33 14 -47 8 -15 19 -52 26 -82 13 -60 57 -179
71 -195 5 -5 -7 38 -27 95 -20 58 -37 128 -39 156 -2 36 -9 58 -24 73 l-21 21
0 -21z"/>
<path d="M1970 3180 c-19 -5 -78 -12 -130 -16 -52 -4 -111 -13 -130 -20 -34
-12 -32 -13 43 -13 l78 -1 -6 -47 c-23 -166 -85 -356 -159 -486 -46 -81 -151
-218 -164 -215 -4 1 -27 -9 -52 -24 -123 -72 -255 -63 -394 26 -31 20 -60 36
-64 36 -4 0 -25 14 -45 31 -27 22 -42 28 -49 21 -17 -17 -4 -37 61 -91 71 -58
162 -91 278 -99 99 -6 153 4 207 39 65 43 233 192 285 253 99 115 182 269 224
417 39 137 40 148 14 159 -18 7 -13 9 26 9 35 1 47 5 47 16 0 16 -16 17 -70 5z"/>
<path d="M1099 2249 c22 -28 41 -57 41 -63 0 -6 5 -4 11 4 8 11 12 12 16 3 2
-7 13 -13 23 -13 10 0 31 -7 47 -14 15 -8 35 -17 44 -20 14 -4 15 -49 13 -428
l-2 -423 9 320 c4 176 12 364 16 419 7 78 6 99 -5 103 -18 7 14 43 39 43 15 0
122 100 115 107 -2 2 -27 -2 -57 -7 -72 -14 -217 -15 -260 -2 -19 5 -47 13
-63 17 l-29 6 42 -52z"/>
<path d="M1293 925 c0 -44 2 -61 4 -37 2 23 2 59 0 80 -2 20 -4 1 -4 -43z"/>
<path d="M1299 780 c-3 -21 -10 -26 -43 -28 -21 -2 -43 1 -49 7 -20 20 -25 11
-15 -29 9 -36 8 -43 -8 -55 -11 -8 -24 -15 -30 -15 -13 0 -59 -80 -45 -80 5 0
15 13 22 28 12 28 13 28 53 15 54 -19 133 -9 141 18 4 10 3 23 0 29 -3 6 -10
38 -14 73 -4 38 -9 52 -12 37z m-59 -120 c0 -15 -27 -23 -47 -16 -15 6 -15 8
-3 16 20 13 50 12 50 0z m75 -10 c3 -5 -3 -10 -14 -10 -12 0 -21 5 -21 10 0 6
6 10 14 10 8 0 18 -4 21 -10z"/>
<path d="M1320 719 c0 -5 5 -7 10 -4 6 3 10 8 10 11 0 2 -4 4 -10 4 -5 0 -10
-5 -10 -11z"/>
<path d="M1360 618 c0 -31 -36 -47 -109 -50 l-46 -1 39 -4 c22 -3 60 1 84 7
57 14 66 5 16 -16 -39 -16 -159 -16 -196 0 -33 15 -18 -9 17 -28 29 -16 46
-18 107 -11 40 4 92 8 115 9 23 0 44 4 48 8 5 4 -43 77 -71 107 -2 2 -4 -7 -4
-21z"/>
<path d="M1069 549 c-9 -17 -8 -23 2 -30 22 -14 26 -11 21 21 -5 36 -8 37 -23
9z"/>
<path d="M1165 493 c-11 -2 -30 -6 -41 -8 -23 -5 -39 -31 -25 -39 4 -3 18 4
30 15 28 27 77 23 74 -6 -2 -26 13 -35 59 -35 28 0 40 5 49 21 9 17 8 23 -2
30 -10 6 -3 9 19 9 20 0 42 -8 55 -21 19 -18 22 -18 25 -4 2 9 2 18 0 21 -18
17 -187 29 -243 17z"/>
<path d="M1160 450 c0 -5 5 -10 11 -10 5 0 7 5 4 10 -3 6 -8 10 -11 10 -2 0
-4 -4 -4 -10z"/>
<path d="M570 425 c-16 -19 -2 -38 19 -26 9 6 10 14 4 25 -9 16 -11 16 -23 1z"/>
<path d="M990 385 c-7 -8 -24 -15 -39 -15 -14 0 -33 -5 -41 -11 -11 -8 -5 -9
24 -4 52 9 86 22 86 35 0 15 -16 12 -30 -5z"/>
<path d="M1183 382 c-1 -15 10 -22 48 -30 57 -14 89 -3 89 28 0 18 -7 20 -68
20 -59 0 -68 -2 -69 -18z"/>
<path d="M1100 365 c7 -8 17 -15 22 -15 6 0 5 7 -2 15 -7 8 -17 15 -22 15 -6
0 -5 -7 2 -15z"/>
<path d="M1373 358 c-28 -13 -30 -28 -4 -28 32 0 50 11 44 26 -6 16 -10 16
-40 2z"/>
<path d="M602 343 c7 -8 23 -11 47 -7 24 4 51 0 75 -10 21 -9 58 -16 82 -16
31 0 44 -4 44 -14 0 -8 19 -18 44 -25 48 -12 85 -4 112 24 13 13 12 15 -8 19
-13 3 -61 7 -108 10 -47 4 -107 13 -135 21 -60 19 -169 17 -153 -2z"/>
<path d="M1778 350 c-2 -7 -46 -12 -105 -15 -105 -3 -143 -10 -143 -25 0 -5 8
-11 18 -14 9 -3 1 -3 -19 0 -20 2 -47 0 -60 -5 -19 -8 -11 -10 39 -10 35 -1
73 4 84 10 16 8 19 8 13 -1 -6 -10 8 -11 61 -5 38 4 73 11 79 16 5 5 17 9 28
9 10 0 15 5 12 10 -4 6 -1 17 5 25 8 9 8 15 2 15 -6 0 -12 -5 -14 -10z"/>
<path d="M1800 320 c0 -13 11 -13 30 0 12 8 11 10 -7 10 -13 0 -23 -4 -23 -10z"/>
</g>
</svg>
