<?xml version="1.0" standalone="no"?>
<!DOCTYPE svg PUBLIC "-//W3C//DTD SVG 20010904//EN"
 "http://www.w3.org/TR/2001/REC-SVG-20010904/DTD/svg10.dtd">
<svg version="1.0" xmlns="http://www.w3.org/2000/svg"
 width="512.000000pt" height="512.000000pt" viewBox="0 0 512.000000 512.000000"
 preserveAspectRatio="xMidYMid meet">

<g transform="translate(0.000000,512.000000) scale(0.100000,-0.100000)"
fill="#000000" stroke="none">
<path d="M3092 4890 c-54 -18 -85 -40 -105 -75 -8 -14 -14 -157 -17 -470 -6
-427 -7 -453 -28 -515 -32 -96 -85 -176 -200 -301 -77 -84 -112 -130 -142
-192 -81 -165 -75 -52 -75 -1522 l0 -1310 24 -60 c33 -82 124 -173 206 -206
60 -24 62 -24 425 -24 363 0 365 0 425 24 82 33 173 124 206 206 l24 60 0
1315 c0 1246 -1 1318 -18 1380 -38 133 -88 213 -232 370 -66 71 -107 127 -131
175 -58 118 -64 177 -64 618 0 237 -4 407 -10 429 -25 88 -170 138 -288 98z"/>
<path d="M1484 2813 l-71 -4 -11 -52 c-80 -384 -107 -542 -118 -696 -15 -225
74 -422 240 -533 116 -78 167 -138 202 -238 17 -49 19 -83 18 -295 -1 -253
-11 -361 -44 -461 -31 -92 -62 -116 -195 -147 -60 -14 -132 -35 -160 -47 -45
-19 -48 -23 -33 -34 27 -20 166 -27 499 -25 309 2 431 8 446 22 20 20 -105 68
-252 97 -44 9 -68 21 -91 44 -69 69 -98 254 -92 601 3 217 3 221 31 280 42 88
68 118 176 194 102 73 147 123 195 218 82 163 73 380 -35 898 -17 84 -35 158
-39 165 -6 10 -79 13 -301 15 -162 1 -326 0 -365 -2z"/>
</g>
</svg>
